<?xml version="1.0" encoding="utf-8"?>
<!-- Generator: Adobe Illustrator 22.1.0, SVG Export Plug-In . SVG Version: 6.00 Build 0)  -->
<svg version="1.1" id="Layer_1" xmlns="http://www.w3.org/2000/svg" xmlns:xlink="http://www.w3.org/1999/xlink" x="0px" y="0px"
	 width="8.7102px" height="10.9651px" viewBox="0 0 8.7102 10.9651" enable-background="new 0 0 8.7102 10.9651"
	 xml:space="preserve">
<title>map-pin-orange</title>
<path fill="none" stroke="#000000" stroke-miterlimit="10" d="M4.3651,5.9331c-0.866,0-1.568-0.702-1.568-1.568
	s0.702-1.568,1.568-1.568s1.568,0.702,1.568,1.568S5.2311,5.9331,4.3651,5.9331L4.3651,5.9331L4.3651,5.9331 M4.3651,0.5
	C2.236,0.4945,0.5055,2.216,0.5,4.3451l0,0l0,0c0,2.9962,3.7453,5.9924,3.8551,6.0423l0,0
	c0.1199-0.0898,3.8551-2.9961,3.8551-6.0423C8.2047,2.2238,6.4864,0.5055,4.3651,0.5L4.3651,0.5"/>
</svg>
